<mxfile host="app.diagrams.net" modified="2020-08-30T15:24:37.711Z" agent="5.0 (X11; Linux x86_64) AppleWebKit/537.36 (KHTML, like Gecko) Chrome/84.0.4147.135 Safari/537.36" etag="3rL2gZNh4olNHkKORAcW" version="13.6.5" type="github">
  <diagram id="z_VgCB_RExXxCyT92HU0" name="Page-1">
    <mxGraphModel dx="979" dy="524" grid="1" gridSize="10" guides="1" tooltips="1" connect="1" arrows="1" fold="1" page="1" pageScale="1" pageWidth="827" pageHeight="1169" math="0" shadow="0">
      <root>
        <mxCell id="0" />
        <mxCell id="1" parent="0" />
        <mxCell id="YSTaN3U0DIS0-BgVrSDm-5" value="Data Summary Post" style="swimlane;childLayout=stackLayout;horizontal=1;startSize=30;horizontalStack=0;rounded=1;fontSize=14;fontStyle=0;strokeWidth=2;resizeParent=0;resizeLast=1;shadow=0;dashed=0;align=center;" vertex="1" parent="1">
          <mxGeometry x="40" y="40" width="260" height="390" as="geometry" />
        </mxCell>
        <mxCell id="YSTaN3U0DIS0-BgVrSDm-6" value="document_key: &#39;post_id&#39;,&#xa;document_body:&#xa;{&#xa;    &#39;post_id&#39;: str,&#xa;    &#39;last_updated&#39;: timestamp,&#xa;    &#39;total_like&#39;: int,&#xa;    &#39;total_comment&#39;: int,&#xa;    &#39;user_id_list_like: [&#xa;         username_1 : str,&#xa;         ......&#xa;         username_n: str,&#xa;     ],&#xa;     &#39;user_id_list_comment: [&#xa;         {&#xa;            username_1 : str,&#xa;            &#39;comment_body&#39;: str,&#xa;         },&#xa;         ......&#xa;         {&#xa;            username_1 : str,&#xa;            &#39;comment_body&#39;: str,&#xa;         },&#xa;     ]&#xa;}" style="align=left;strokeColor=none;fillColor=none;spacingLeft=4;fontSize=12;verticalAlign=top;resizable=0;rotatable=0;part=1;" vertex="1" parent="YSTaN3U0DIS0-BgVrSDm-5">
          <mxGeometry y="30" width="260" height="360" as="geometry" />
        </mxCell>
        <mxCell id="YSTaN3U0DIS0-BgVrSDm-10" value="Word Count Data" style="swimlane;childLayout=stackLayout;horizontal=1;startSize=30;horizontalStack=0;rounded=1;fontSize=14;fontStyle=0;strokeWidth=2;resizeParent=0;resizeLast=1;shadow=0;dashed=0;align=center;" vertex="1" parent="1">
          <mxGeometry x="40" y="456" width="260" height="160" as="geometry" />
        </mxCell>
        <mxCell id="YSTaN3U0DIS0-BgVrSDm-11" value="document_key: &#39;word_name&#39;&#xa;document_body: &#xa;{&#xa;    &#39;word_name&#39;: str,&#xa;    &#39;word_count_total&#39;: int,&#xa;    &#39;word_count_by_positive_sentiment&#39;: int,&#xa;    &#39;word_count_by_negative_sentiment&#39;: int,&#xa;}" style="align=left;strokeColor=none;fillColor=none;spacingLeft=4;fontSize=12;verticalAlign=top;resizable=0;rotatable=0;part=1;" vertex="1" parent="YSTaN3U0DIS0-BgVrSDm-10">
          <mxGeometry y="30" width="260" height="130" as="geometry" />
        </mxCell>
        <mxCell id="YSTaN3U0DIS0-BgVrSDm-8" value="Data Historis per Interval" style="swimlane;childLayout=stackLayout;horizontal=1;startSize=30;horizontalStack=0;rounded=1;fontSize=14;fontStyle=0;strokeWidth=2;resizeParent=0;resizeLast=1;shadow=0;dashed=0;align=center;" vertex="1" parent="1">
          <mxGeometry x="350" y="40" width="260" height="360" as="geometry" />
        </mxCell>
        <mxCell id="YSTaN3U0DIS0-BgVrSDm-9" value="document_key: &#39;post_id&#39; + &#39;time_added&#39;&#xa;document_body:&#xa;{&#xa;    &#39;post_id&#39;: str,&#xa;    &#39;time_added&#39;: timestamp,&#xa;    &#39;user_id_new_like&#39;: [&#xa;         username_1 : str,&#xa;         ......&#xa;         username_n: str,&#xa;     ],&#xa;     &#39;user_id_new_comment: [&#xa;         {&#xa;            username_1 : str,&#xa;            &#39;comment_body&#39;: str,&#xa;         },&#xa;         ......&#xa;         {&#xa;            username_1 : str,&#xa;            &#39;comment_body&#39;: str,&#xa;         },&#xa;     ]&#xa;}" style="align=left;strokeColor=none;fillColor=none;spacingLeft=4;fontSize=12;verticalAlign=top;resizable=0;rotatable=0;part=1;" vertex="1" parent="YSTaN3U0DIS0-BgVrSDm-8">
          <mxGeometry y="30" width="260" height="330" as="geometry" />
        </mxCell>
      </root>
    </mxGraphModel>
  </diagram>
</mxfile>
